<?xml version="1.0" encoding="utf-8"?>
<!-- Generator: Adobe Illustrator 26.0.3, SVG Export Plug-In . SVG Version: 6.00 Build 0)  -->
<svg version="1.1" xmlns="http://www.w3.org/2000/svg" xmlns:xlink="http://www.w3.org/1999/xlink" x="0px" y="0px"
	 viewBox="0 0 576 576" style="enable-background:new 0 0 576 576;" xml:space="preserve">
<style type="text/css">
	.st0{fill:#4C86C6;}
	.st1{fill:#FFFFFF;}
	.st2{fill:none;stroke:#FFFFFF;stroke-width:6;stroke-miterlimit:10;}
	.st3{fill:#4C86C6;stroke:#4C86C6;stroke-width:6;stroke-miterlimit:10;}
	.st4{fill:#4C86C6;stroke:#FFFFFF;stroke-width:6;stroke-miterlimit:10;}
	.st5{fill:none;stroke:#FFFFFF;stroke-width:4;stroke-miterlimit:10;}
	.st6{fill:none;stroke:#000000;stroke-width:6;stroke-miterlimit:10;}
</style>
<g id="_x32_">
	<rect x="-9.32" y="-9" class="st0" width="594" height="594"/>
	<path class="st1" d="M287.68,219.86c0,51.09-41.42,92.51-92.51,92.51c-6.97,0-13.75-0.77-20.27-2.23l-1.06-0.66
		c-2.35,1.04-4.89,2.01-7.65,2.89c-1.79,0.57-3.56,1.02-5.31,1.4v64.48c0,0-30.29-8.13-34.62-42.81c0,0-3.59-26.96-3.33-57.79
		l-0.01-0.01c-12.68-15.83-20.26-35.92-20.26-57.78c0-51.09,41.42-92.51,92.51-92.51C246.26,127.35,287.68,168.77,287.68,219.86z"/>
	<line class="st2" x1="160.88" y1="313.77" x2="160.88" y2="312.37"/>
	<g>
		<g>
			<path class="st1" d="M165.08,208.11c3.22,0,3.22-5,0-5C161.86,203.11,161.86,208.11,165.08,208.11L165.08,208.11z"/>
		</g>
	</g>
	<circle class="st3" cx="196.17" cy="214.95" r="93.21"/>
	<path class="st4" d="M123.43,273.73c-12.68-15.83-20.26-35.92-20.26-57.78c0-51.09,41.42-92.51,92.51-92.51
		s92.51,41.42,92.51,92.51s-41.42,92.51-92.51,92.51c-6.96,0-13.75-0.77-20.27-2.23"/>
	<path class="st2" d="M161.39,308.46v65.88c0,0-30.29-8.13-34.62-42.81c0,0-14-105.26,15.33-137.62c7.26-8.01,18.7-11.08,28.8-7.22
		c5.25,2,10.19,5.83,12.56,12.92l13.66,5.34l-17.09,15.11c0,0,50.49,68.08-13.33,88.4c-18.87,6.01-36.24-0.47-39.92,23.07"/>
	<g>
		<g>
			<path class="st1" d="M165.59,206.71c2.62,0,5.12-2.3,5-5c-0.12-2.71-2.2-5-5-5c-2.62,0-5.12,2.3-5,5
				C160.72,204.42,162.79,206.71,165.59,206.71L165.59,206.71z"/>
		</g>
	</g>
	<g>
		<path class="st1" d="M209.57,375.76v-53.49h7.04v53.49H209.57z"/>
		<path class="st1" d="M231.54,381.21h7.04c1.23,3.64,3.34,6.33,6.33,8.09c2.99,1.75,7.24,2.63,12.72,2.63
			c6.71,0,11.62-1.33,14.72-3.99c3.1-2.66,4.66-6.59,4.66-11.79v-5.07c0-1.04,0.09-1.88,0.27-2.53c0.18-0.65,0.52-1.33,1.03-2.05
			l-1.52-0.78c-5.27,7.34-12.27,11.01-21,11.01c-5.05,0-9.56-1.18-13.53-3.56c-3.97-2.37-7.04-5.67-9.2-9.89
			c-2.17-4.22-3.25-9.03-3.25-14.42c0-5.33,1.08-10.08,3.25-14.27c2.16-4.19,5.23-7.46,9.2-9.79c3.97-2.34,8.48-3.51,13.53-3.51
			c8.73,0,15.73,3.67,21,11.01l1.3-0.49c-0.72-2.14-1.08-4.09-1.08-5.85v-3.7h7.04v52.81c0,7.86-2.26,13.58-6.77,17.15
			c-4.51,3.57-11.03,5.36-19.54,5.36C243.45,397.58,234.72,392.13,231.54,381.21z M267.11,368.21c3.14-1.92,5.61-4.55,7.42-7.89
			c1.8-3.34,2.71-7.1,2.71-11.25s-0.9-7.93-2.71-11.3c-1.81-3.38-4.28-6.03-7.42-7.94c-3.14-1.92-6.7-2.87-10.66-2.87
			c-4.04,0-7.54,0.96-10.5,2.87c-2.96,1.92-5.22,4.55-6.77,7.89c-1.55,3.35-2.33,7.13-2.33,11.35c0,4.16,0.79,7.91,2.38,11.25
			c1.59,3.35,3.86,5.98,6.82,7.89c2.96,1.92,6.42,2.87,10.39,2.87C260.41,371.08,263.97,370.12,267.11,368.21z"/>
		<path class="st1" d="M310.68,373.13c-4.33-2.4-7.71-5.71-10.12-9.94c-2.42-4.22-3.63-8.93-3.63-14.13c0-5,1.15-9.61,3.46-13.84
			c2.31-4.22,5.61-7.6,9.91-10.13c4.29-2.53,9.26-3.8,14.89-3.8c4.98,0,9.55,1.04,13.7,3.12c4.15,2.08,7.52,5.07,10.12,8.96
			c2.6,3.9,4.04,8.51,4.33,13.84c0.07,0.58,0.11,1.56,0.11,2.92h-41.57c-4.11,0-7.07-0.06-8.88-0.19l-0.43,1.46
			c0.65,0.13,1.1,0.44,1.35,0.93c0.25,0.49,0.52,1.25,0.81,2.29c0.36,1.36,0.65,2.34,0.87,2.92c1.59,4.22,4.13,7.54,7.63,9.94
			c3.5,2.4,7.52,3.61,12.07,3.61c4.69,0,8.73-1.14,12.13-3.41c3.39-2.27,5.81-5.2,7.25-8.77h7.47c-1.81,5.26-5.02,9.55-9.64,12.86
			c-4.62,3.31-10.36,4.97-17.21,4.97C319.89,376.73,315.01,375.53,310.68,373.13z M308.14,345.16c1.05-0.13,2.29-0.2,3.73-0.2h27.61
			c1.3,0,2.42,0.07,3.36,0.2c0.94,0.13,2.09,0.49,3.46,1.07l1.08-1.36c-0.58-0.52-1.05-1.49-1.41-2.92
			c-0.51-1.62-0.94-2.83-1.3-3.61c-1.66-3.57-4.22-6.37-7.69-8.38c-3.46-2.01-7.36-3.02-11.69-3.02s-8.14,0.96-11.42,2.87
			c-3.29,1.92-5.76,4.63-7.42,8.14c-0.43,0.84-0.9,2.14-1.41,3.9c-0.22,0.65-0.45,1.23-0.7,1.75c-0.25,0.52-0.56,0.94-0.92,1.27
			l0.97,1.36C305.85,345.65,307.09,345.29,308.14,345.16z"/>
		<path class="st5" d="M416.72,335.15c-2.38-3.98-5.66-7.11-9.83-9.41c-4.18-2.29-8.85-3.45-14.02-3.45
			c-5.17,0-9.84,1.16-13.98,3.45c-4.14,2.29-7.38,5.43-9.72,9.41c-2.35,3.98-3.53,8.44-3.53,13.41c0,5.1,1.18,9.67,3.53,13.74
			c2.34,4.07,5.58,7.26,9.72,9.55c4.14,2.29,8.8,3.45,13.98,3.45c5.24,0,9.95-1.17,14.13-3.5c4.17-2.32,7.43-5.53,9.78-9.59
			c2.34-4.07,3.52-8.62,3.52-13.65C420.29,343.59,419.1,339.12,416.72,335.15z M410.88,359.45c-1.8,3.23-4.28,5.77-7.46,7.64
			c-3.17,1.86-6.69,2.79-10.55,2.79c-3.87,0-7.35-0.91-10.46-2.74c-3.1-1.84-5.55-4.38-7.34-7.64c-1.8-3.26-2.7-6.91-2.7-10.95
			c0-3.91,0.88-7.47,2.64-10.67c1.76-3.19,4.21-5.69,7.35-7.49c3.14-1.8,6.63-2.71,10.51-2.71c3.93,0,7.47,0.92,10.6,2.75
			c3.15,1.84,5.61,4.33,7.41,7.49c1.79,3.17,2.69,6.71,2.69,10.62C413.56,352.59,412.66,356.22,410.88,359.45z"/>
		<path class="st5" d="M413.56,348.56c0,4.03-0.9,7.67-2.69,10.9c-1.8,3.23-4.28,5.77-7.46,7.64c-3.17,1.86-6.69,2.79-10.55,2.79
			c-3.87,0-7.35-0.91-10.46-2.74c-3.1-1.84-5.55-4.38-7.34-7.64c-1.8-3.26-2.7-6.91-2.7-10.95c0-3.91,0.88-7.47,2.64-10.67
			c1.76-3.19,4.21-5.69,7.35-7.49c3.14-1.8,6.63-2.71,10.51-2.71c3.93,0,7.47,0.92,10.6,2.75c3.15,1.84,5.61,4.33,7.41,7.49
			C412.66,341.11,413.56,344.65,413.56,348.56z"/>
		<path class="st1" d="M433.89,322.26h7.04v4.68c0,1.04-0.09,1.88-0.27,2.53c-0.18,0.65-0.52,1.33-1.03,2.05l1.52,0.78
			c2.24-3.83,4.89-6.63,7.96-8.38c3.07-1.75,6.84-2.63,11.31-2.63c3.61,0,6.78,0.73,9.53,2.19c2.74,1.46,4.91,3.46,6.5,5.99
			c1.23,2.01,2.02,4.14,2.38,6.38c0.36,2.24,0.54,4.6,0.54,7.06v32.84h-7.04v-33.13c0-4.61-0.87-8.18-2.6-10.72
			c-2.24-3.31-5.85-4.97-10.83-4.97c-4.55,0-8.34,1.46-11.37,4.38c-2.17,2.21-3.81,5.15-4.93,8.82c-1.12,3.67-1.68,8.49-1.68,14.47
			v21.14h-7.04V322.26z"/>
	</g>
</g>
<g id="_x31_">
	<g id="Layer_3">
	</g>
	<g id="icon">
	</g>
</g>
</svg>
