<?xml version="1.0" encoding="utf-8"?>
<!-- Generator: Adobe Illustrator 26.0.3, SVG Export Plug-In . SVG Version: 6.00 Build 0)  -->
<svg version="1.1" xmlns="http://www.w3.org/2000/svg" xmlns:xlink="http://www.w3.org/1999/xlink" x="0px" y="0px"
	 viewBox="0 0 576 576" style="enable-background:new 0 0 576 576;" xml:space="preserve">
<style type="text/css">
	.st0{fill:#4C86C6;}
	.st1{fill:#FFFFFF;}
	.st2{fill:none;stroke:#FFFFFF;stroke-width:6;stroke-miterlimit:10;}
	.st3{fill:#4C86C6;stroke:#4C86C6;stroke-width:6;stroke-miterlimit:10;}
	.st4{fill:#4C86C6;stroke:#FFFFFF;stroke-width:6;stroke-miterlimit:10;}
	.st5{fill:none;stroke:#FFFFFF;stroke-width:4;stroke-miterlimit:10;}
	.st6{fill:none;stroke:#000000;stroke-width:6;stroke-miterlimit:10;}
</style>
<g id="_x32_">
</g>
<g id="_x31_">
	<g id="Layer_3">
		<g>
			<path d="M209.57,375.76v-53.49h7.04v53.49H209.57z"/>
			<path d="M231.54,381.21h7.04c1.23,3.64,3.34,6.33,6.33,8.09c2.99,1.75,7.24,2.63,12.72,2.63c6.71,0,11.62-1.33,14.72-3.99
				c3.1-2.66,4.66-6.59,4.66-11.79v-5.07c0-1.04,0.09-1.88,0.27-2.53c0.18-0.65,0.52-1.33,1.03-2.05l-1.52-0.78
				c-5.27,7.34-12.27,11.01-21,11.01c-5.05,0-9.56-1.18-13.53-3.56c-3.97-2.37-7.04-5.67-9.2-9.89c-2.17-4.22-3.25-9.03-3.25-14.42
				c0-5.33,1.08-10.08,3.25-14.27c2.16-4.19,5.23-7.46,9.2-9.79c3.97-2.34,8.48-3.51,13.53-3.51c8.73,0,15.73,3.67,21,11.01
				l1.3-0.49c-0.72-2.14-1.08-4.09-1.08-5.85v-3.7h7.04v52.81c0,7.86-2.26,13.58-6.77,17.15c-4.51,3.57-11.03,5.36-19.54,5.36
				C243.45,397.58,234.72,392.13,231.54,381.21z M267.11,368.21c3.14-1.92,5.61-4.55,7.42-7.89c1.8-3.34,2.71-7.1,2.71-11.25
				s-0.9-7.93-2.71-11.3c-1.81-3.38-4.28-6.03-7.42-7.94c-3.14-1.92-6.7-2.87-10.66-2.87c-4.04,0-7.54,0.96-10.5,2.87
				c-2.96,1.92-5.22,4.55-6.77,7.89c-1.55,3.35-2.33,7.13-2.33,11.35c0,4.16,0.79,7.91,2.38,11.25c1.59,3.35,3.86,5.98,6.82,7.89
				c2.96,1.92,6.42,2.87,10.39,2.87C260.41,371.08,263.97,370.12,267.11,368.21z"/>
			<path d="M310.68,373.13c-4.33-2.4-7.71-5.71-10.12-9.94c-2.42-4.22-3.63-8.93-3.63-14.13c0-5,1.15-9.61,3.46-13.84
				c2.31-4.22,5.61-7.6,9.91-10.13c4.29-2.53,9.26-3.8,14.89-3.8c4.98,0,9.55,1.04,13.7,3.12c4.15,2.08,7.52,5.07,10.12,8.96
				c2.6,3.9,4.04,8.51,4.33,13.84c0.07,0.58,0.11,1.56,0.11,2.92h-41.57c-4.11,0-7.07-0.06-8.88-0.19l-0.43,1.46
				c0.65,0.13,1.1,0.44,1.35,0.93c0.25,0.49,0.52,1.25,0.81,2.29c0.36,1.36,0.65,2.34,0.87,2.92c1.59,4.22,4.13,7.54,7.63,9.94
				c3.5,2.4,7.52,3.61,12.07,3.61c4.69,0,8.73-1.14,12.13-3.41c3.39-2.27,5.81-5.2,7.25-8.77h7.47c-1.81,5.26-5.02,9.55-9.64,12.86
				c-4.62,3.31-10.36,4.97-17.21,4.97C319.89,376.73,315.01,375.53,310.68,373.13z M308.14,345.16c1.05-0.13,2.29-0.2,3.73-0.2
				h27.61c1.3,0,2.42,0.07,3.36,0.2c0.94,0.13,2.09,0.49,3.46,1.07l1.08-1.36c-0.58-0.52-1.05-1.49-1.41-2.92
				c-0.51-1.62-0.94-2.83-1.3-3.61c-1.66-3.57-4.22-6.37-7.69-8.38c-3.46-2.01-7.36-3.02-11.69-3.02s-8.14,0.96-11.42,2.87
				c-3.29,1.92-5.76,4.63-7.42,8.14c-0.43,0.84-0.9,2.14-1.41,3.9c-0.22,0.65-0.45,1.23-0.7,1.75c-0.25,0.52-0.56,0.94-0.92,1.27
				l0.97,1.36C305.85,345.65,307.09,345.29,308.14,345.16z"/>
			<path class="st0" d="M422.34,333.82c-2.84-4.74-6.75-8.48-11.72-11.22c-4.98-2.74-10.56-4.12-16.72-4.12
				c-6.17,0-11.73,1.38-16.67,4.12c-4.94,2.74-8.8,6.48-11.59,11.22c-2.8,4.74-4.21,10.07-4.21,15.99c0,6.08,1.4,11.54,4.21,16.38
				c2.79,4.86,6.66,8.65,11.59,11.39c4.94,2.74,10.5,4.12,16.67,4.12c6.25,0,11.87-1.39,16.85-4.17c4.97-2.77,8.86-6.59,11.66-11.43
				c2.79-4.86,4.2-10.28,4.2-16.28C426.6,343.89,425.18,338.56,422.34,333.82z M415.37,362.81c-2.14,3.85-5.11,6.89-8.89,9.11
				c-3.78,2.22-7.98,3.33-12.59,3.33c-4.62,0-8.77-1.08-12.47-3.27c-3.69-2.19-6.62-5.22-8.76-9.11c-2.14-3.89-3.21-8.24-3.21-13.05
				c0-4.66,1.05-8.9,3.15-12.72c2.1-3.81,5.02-6.78,8.77-8.94c3.74-2.14,7.91-3.23,12.53-3.23c4.69,0,8.9,1.09,12.64,3.28
				c3.75,2.19,6.69,5.16,8.84,8.94c2.13,3.78,3.2,8,3.2,12.67C418.57,354.63,417.5,358.96,415.37,362.81z"/>
			<path class="st4" d="M418.57,349.82c0,4.81-1.07,9.14-3.2,13c-2.14,3.85-5.11,6.89-8.89,9.11c-3.78,2.22-7.98,3.33-12.59,3.33
				c-4.62,0-8.77-1.08-12.47-3.27c-3.69-2.19-6.62-5.22-8.76-9.11c-2.14-3.89-3.21-8.24-3.21-13.05c0-4.66,1.05-8.9,3.15-12.72
				c2.1-3.81,5.02-6.78,8.77-8.94c3.74-2.14,7.91-3.23,12.53-3.23c4.69,0,8.9,1.09,12.64,3.28c3.75,2.19,6.69,5.16,8.84,8.94
				C417.5,340.94,418.57,345.15,418.57,349.82z"/>
			<path d="M433.89,322.26h7.04v4.68c0,1.04-0.09,1.88-0.27,2.53c-0.18,0.65-0.52,1.33-1.03,2.05l1.52,0.78
				c2.24-3.83,4.89-6.63,7.96-8.38c3.07-1.75,6.84-2.63,11.31-2.63c3.61,0,6.78,0.73,9.53,2.19c2.74,1.46,4.91,3.46,6.5,5.99
				c1.23,2.01,2.02,4.14,2.38,6.38c0.36,2.24,0.54,4.6,0.54,7.06v32.84h-7.04v-33.13c0-4.61-0.87-8.18-2.6-10.72
				c-2.24-3.31-5.85-4.97-10.83-4.97c-4.55,0-8.34,1.46-11.37,4.38c-2.17,2.21-3.81,5.15-4.93,8.82c-1.12,3.67-1.68,8.49-1.68,14.47
				v21.14h-7.04V322.26z"/>
		</g>
	</g>
	<g id="icon">
		<path class="st0" d="M128.52,276.13c0,0,25.27,26.95,54.05,33.8l-14.76,6.22l0.19,64.61c0,0-33.53-3.95-36.46-48.32L128.52,276.13
			z"/>
		<path class="st6" d="M128.52,276.13c-13.18-16.46-21.07-37.36-21.07-60.09c0-53.13,43.07-96.2,96.2-96.2s96.2,43.07,96.2,96.2
			s-43.07,96.2-96.2,96.2c-7.24,0-14.3-0.8-21.08-2.32"/>
		<path class="st6" d="M167.99,312.24v68.51c0,0-31.5-8.46-36-44.52c0,0-14.56-109.46,15.94-143.12
			c7.55-8.33,19.45-11.52,29.95-7.51c5.46,2.09,10.6,6.06,13.06,13.44l14.21,5.55l-17.77,15.72c0,0,52.51,70.8-13.87,91.93
			c-19.63,6.25-37.68-0.49-41.52,23.99"/>
		<g>
			<g>
				<path d="M172.36,206.23c2.62,0,5.12-2.3,5-5c-0.12-2.71-2.2-5-5-5c-2.62,0-5.12,2.3-5,5
					C167.49,203.94,169.56,206.23,172.36,206.23L172.36,206.23z"/>
			</g>
		</g>
	</g>
</g>
</svg>
