<?xml version="1.0" encoding="utf-8"?>
<!-- Generator: Adobe Illustrator 26.0.3, SVG Export Plug-In . SVG Version: 6.00 Build 0)  -->
<svg version="1.1" xmlns="http://www.w3.org/2000/svg" xmlns:xlink="http://www.w3.org/1999/xlink" x="0px" y="0px"
	 viewBox="0 0 576 576" style="enable-background:new 0 0 576 576;" xml:space="preserve">
<style type="text/css">
	.st0{fill:#4C86C6;stroke:#FFFFFF;stroke-width:6;stroke-miterlimit:10;}
	.st1{fill:none;stroke:#FFFFFF;stroke-width:6;stroke-miterlimit:10;}
	.st2{fill:#4C86C6;}
	.st3{fill:#FFFFFF;}
	.st4{fill:#FFFFFF;stroke:#000000;stroke-width:6;stroke-miterlimit:10;}
	.st5{fill:none;stroke:#000000;stroke-width:6;stroke-miterlimit:10;}
</style>
<g id="_x32_">
	<path class="st0" d="M410.32,248.34c0,73.23-59.37,132.6-132.6,132.6c-9.99,0-19.71-1.1-29.05-3.2l-1.52-0.95
		c-3.37,1.49-7.01,2.88-10.96,4.14c-2.57,0.82-5.1,1.46-7.61,2.01v92.42c0,0-43.42-11.65-49.62-61.36c0,0-5.15-38.64-4.77-82.83
		l-0.01-0.01c-18.17-22.69-29.04-51.48-29.04-82.82c0-73.23,59.37-132.6,132.6-132.6C350.95,115.74,410.32,175.11,410.32,248.34z"/>
	<line class="st1" x1="228.57" y1="382.94" x2="228.57" y2="380.94"/>
	<g>
		<g>
			<path class="st3" d="M234.6,230.43c3.22,0,3.22-5,0-5C231.38,225.43,231.37,230.43,234.6,230.43L234.6,230.43z"/>
		</g>
	</g>
	<path class="st4" d="M174.9,325.56c-18.17-22.69-29.04-51.49-29.04-82.82c0-73.23,59.36-132.59,132.59-132.59
		s132.59,59.36,132.59,132.59s-59.36,132.59-132.59,132.59c-9.98,0-19.7-1.1-29.05-3.19"/>
	<path class="st5" d="M229.31,375.33v94.43c0,0-43.42-11.65-49.62-61.36c0,0-20.07-150.87,21.97-197.25
		c10.4-11.48,26.81-15.88,41.28-10.35c7.53,2.87,14.61,8.35,18,18.52l19.58,7.65l-24.49,21.66c0,0,72.37,97.59-19.11,126.71
		c-27.05,8.61-51.94-0.68-57.22,33.07"/>
	<g>
		<g>
			<path d="M235.33,227.33c2.62,0,5.12-2.3,5-5c-0.12-2.71-2.2-5-5-5c-2.62,0-5.12,2.3-5,5
				C230.45,225.04,232.53,227.33,235.33,227.33L235.33,227.33z"/>
		</g>
	</g>
</g>
<g id="_x31_">
</g>
</svg>
